<?xml version="1.0" encoding="utf-8"?>
<!-- Generator: Adobe Illustrator 18.1.1, SVG Export Plug-In . SVG Version: 6.00 Build 0)  -->
<svg version="1.1" id="レイヤー_2" xmlns="http://www.w3.org/2000/svg" xmlns:xlink="http://www.w3.org/1999/xlink" x="0px"
	 y="0px" viewBox="1076.2 822.8 101 101" enable-background="new 1076.2 822.8 101 101" xml:space="preserve">
<g>
	<rect x="1076.7" y="823.3" fill="none" width="100" height="100"/>
	<path fill="#CCCCCC" d="M1085.5,838.3l2.6,0.6l1.9,5.6l5.1,3.3l-0.1,2.8l-1.9,1.9l1.8,7.5l1.5,1.8l2.1-3.1l1.9-2.5h3.5l1.3-5.6
		l7.4-0.3l7.7,4.2l10.9-2.5l13.4-6.4l2.9-2.5l5-2.5l3.2-1.3l4.6-1.3l5-0.8l3.6,1.3l2.1,2.6l-0.6,1.5l1.4,1h1.5l1.3,2.4l2.1,2.4
		v-25.2h-100v1.8l4.2,5.1L1085.5,838.3z M1176.7,854.3v-2.9l-0.7,1.1L1176.7,854.3z"/>
	<rect x="1076.7" y="823.3" fill="none" stroke="#CCCCCC" stroke-miterlimit="10" width="100" height="100"/>
	<path fill="#020202" d="M1116,852.9L1116,852.9C1116,852.9,1116,852.9,1116,852.9z M1164.6,864.8V863h-3.8l-0.7-1.3l1-1l-1-1
		l-0.9,0.9v4.5h-1.1l0.4-1l-0.7-1.4l-0.8,1.5v-1.8l0.6-1l-0.8-0.7v-1.5l-1.2-0.1l-0.1-1.4l-0.6-1l-1.9,1.8l-0.7,1.8l-1.3,0.1
		l-0.5,0.8l-0.8-0.6l-1.1,1.3l0.8,0.5l0.6,2.2l-2.1,1.9l-0.5-1l0.6-0.6l-0.6-1.3h-4.2l-0.5,0.8h-1.1l-0.6,3l-1.1-0.6v-2.3l-5-3
		l0.6-0.6h2.1l1.1-0.9l1.2,1.4h1.7v-0.8l-1.7-0.1l-0.7-0.8l0.7-1.8l0.9,0.7h1.7l1.5-2.4v-1.1l2.2,0.9l1.9-0.7h1.6l0.6,0.7l-1.8,1.9
		l-1.8,0.1l-0.8,0.9l-0.3,1.4l1.4-1.3l2-0.9l3.7-1.9l2.3-2.2l1.1-1.7l-0.7,0.1l-1.6,1.1l-2.2,0.7l-1-0.8l-2-0.9v-1.9l-0.7-0.9
		l-1.5,0.4v-2.2l-2.4-1.3l-0.6,0.7l-1.5,2l-2.9,0.9v-1.3l3.2-1.9l-2.7-1.5h-7.2l-2.4,2.3l-3.2,1.5h-4.6v2.1h-3.1l-1.8,1.8
		c0,0-1.3-0.1-1.4-0.1l-1.4,0.7l0.2,1l-0.8,0.6v1l-1,0.6l-0.5-1.2l-1.7-0.5l-2.8,3.3v1.4l-3.2,1.5v1l-2.2,2.1h-3.3l-1.5,2.9l1.7,1.7
		v3.4l2.4,2.4l3.3-3.3h3l2.6,2.6h2.6l0.9,0.9l4.8-1.9h6.9l-4.4,1.1l1.9,4.5h3.5l3.2,1.9l1.2-1.7l1.5,1.5v2.5l0.9,0.9l3.2-1.4v-2.6
		l2.7,2.7h1.5l2.3,2.3l2.4-2.4h1l0.6,1.7l-1.2,2.6l1.9,1.6l0.9-1.1h1l1.4,1.4l0.9-0.9v-1.9h-1.2l-0.5,0.5l-0.8-0.8v-0.7l0.4-0.4
		l0.6,0.6h0.8l1.5-1.5v-1.1l-1.2-1.2h-0.8l-1,1v-2.3h-2.5l-1.3-4.7h-0.8v-1.6l1.1-1.1l3.1-3.1l0.9,0.8l0.5-0.5l0.6,0.8h1l0.2-1.2
		l0.8,0l2,2v2.2l1.8,1.8h0.9v2.4l0.9-0.9v-1.7h1.6l1.4-1.4v-2l1.4,1.4V870l-1.4-1.4h-1.3l1-2.6l1.1-0.8h0.7l0.6,1.3h0.9v-1.3
		L1164.6,864.8z M1117.8,876.4h-0.9l-2,2l-1.1,1.1h-2.2l-1.3,1.3l-2.1,1.3l-2.8,1.4h-2.7l0.2-1.2l-0.3-2.3l-0.5-0.6l-5.6,2.1
		l0.8,1.2l-0.6,0.8l0.3,0.5l2.4-0.4l3.3,1l-1.2,1.2l-1-1.5l-1.1-0.4l-2.3,0.4l-0.5,0.9v0.6l-0.9,0.5l-0.4,0.9l-1.6,0.6l-1,1.4
		l-0.6-0.5l-1,0.7v0.7l0.9-0.4l0.4,0.3v1l-1.4,0.2v2.2l-0.8-1h-0.6l-0.2,2.6l0.6,0.6l-0.4,0.6l0.4,0.6l0.5,0.1v1.3l0.6-0.2l0.4-0.7
		l1.2-0.2v0.4l2.7-2.4l1.9-0.4v0.8l1.8,1.4l0.6-0.7l0.6,0.4h1.6v-1.4h-1.9l1-1h1.1l4.5-1.8l1-0.6l0.8,0.5v1.5l0.7,0.7l-0.8,0.8
		l0.8,0.8h1l3.6-2.5l-1.4-0.7h-0.8l-1.5-1l0.8-0.8l1.7-0.9l-1.8-2.2l0.4-0.9l2.8,1.2v-2.7l-0.5-1.2l1.1-0.1v-1l-1.2,0.6l-0.5-0.6
		l0.7-0.4l-0.6-0.4v-0.7h1.4l0.5-0.5l1.1,1.2l2.4-0.7l-0.3-1.5l0.6-2.3L1117.8,876.4z M1145.2,896.4l0.5,0.5h0.5V896h-1l0.5-0.7
		l-0.7-2l0.3-1.1l-0.9-1.5h1l0.7-2.4l-1.1-1.1h-0.9v-0.8l-1.5-1.3h-1.2l-2.2-1.5h-1.7l-0.9,0.9v0.7h-3.2l-2-0.8h-2.2l-1.8,1.1
		l-0.4,0.7l0.1,0.6l0.9,0.9l1.6,2.5l2.5,0.3l1.2,0.4l0.3,1.5l0.8,0.7l0.5-0.4l0.5-1.8h1l0.4,1.2h0.8l0.4,0.9v1.2l0.4,0.4l-0.7,0.8
		v0.7h0.6l0.2-0.6h0.6l0.7-0.7l0.5,0.7l-0.4,0.4v1.9l0.2,0.2h1.2l0.2-0.4l-0.7-1.5l0.6-0.7l-1.2-1l1.5-1.5l0.3,0.2h0.3V892l-0.7-0.3
		h1.4v0.5l0.3,2.3l0.7,0.4v1.5H1145.2z M1131.4,896.2l-0.1-0.3l-1.2,0.3l-1.3,0.2l-0.1,0.9l-0.6-0.9l0.1-0.5l1.4-0.6l0.1-0.7
		l-0.4-0.1l-0.7,0.4l-0.6-0.7l0.1-0.4l-0.7-0.7v-0.4l0.5-0.2l-0.3-0.4l-2.1,0.6l0.5,0.7l-0.8,1.2l0.5,0.9l0.7,0.1l0.3-1l0.6,0.4
		l0.3,1.5l-0.2,0.9v1.6l-1,0.7v0.6l1.7,0.6l0.9-0.6l0.6,0.6v-0.8l-0.4-0.6v-0.6h0.5l1.5,1.2l-0.1-0.8l-1.1-1.3l0.8-0.6l0.8-0.6
		l0.6,0.1l0.7-0.6l-0.4-0.5L1131.4,896.2z M1154.7,876.9l0.1-0.7l0.4-0.7v-0.9l-0.9-0.4l-0.2-1.4l-0.3-0.7l0.1-0.6l-0.7-0.3h-0.6
		l-0.5,1.5l0.5,1.7l-0.5,0.8l0.7,1.2l0.4,0.1l0.5-0.2l0.7,0.5l-0.4,0.3l0.4,2.2h1l0.4-0.8l-0.4-1L1154.7,876.9z M1116.5,885.2
		l-0.1-0.4l0.6-0.5v-0.3l-1.4,0.3l0.4,0.9l0.5,0.6h0.9v-0.8l-0.5-0.3L1116.5,885.2z M1117,890.1l0.1-0.7l-0.1-0.2h-2.3v0.5h0.8
		l0.5,0.5h0.4v0.7l0.5,0.8l0.6-0.6l0-0.6L1117,890.1z M1115.4,896.6c0-0.1-0.6-0.8-0.6-0.8l0.2-0.6l0.7-0.2l-0.4-0.3l0.5-0.2
		l-0.2-0.4l-0.5,0.2l-0.5,0.1l0,0.6l-0.5,0.6l-0.2,0.3l0.6,0l0.1,0.5l-0.6,0.3l-0.3,0.6h-0.4l-0.1,0.3l0.4,0.3h0.7l0.6-0.9l0.5-0.1
		l0.3,0.5l0.6-0.8l-0.4-0.5C1116.2,896.3,1115.5,896.7,1115.4,896.6z M1110,897.9l-0.4-0.6h-0.5l-0.4,0.6v0.6l0.8,0.8l0.8-0.4l0-0.6
		l-0.6,0L1110,897.9z M1147.9,901.6l-0.3-0.7l-0.4-0.1l-0.3-0.5l-0.4,0.5l-0.8,0.2l-1,1.1l0.5,1l0.7,0.2l-0.4,0.8l0.9-0.6l0.4-0.8
		l0.4,0.3h0.9l-0.4-1L1147.9,901.6z M1145.7,900l-0.1-0.9l-1.7,0.1v0.8l0.3,0.7l0.5-0.5l0.4,0.1L1145.7,900z M1149.9,889.7h-0.6
		l-0.4,0.7l0.2,0.7l0.6,0.2l0.1,0.6l0.6-0.3l0.5-0.5l0.4-0.9l-0.4-1.2L1149.9,889.7z M1149.6,849l1.8-0.6l0.4,0.1l-0.4,0.3l0.6,0.1
		l0.3-0.6l-0.6,0l-0.6-0.7l-0.4-0.4v-0.5l0.6,0l0.6,0.6l1.3-0.5l0.5-0.3l-3.2-0.2v-0.5h-0.4l-0.4,0.4l0.3,0.4l0.1,0.6l0.6,0.9
		l-1.3,0L1149.6,849z M1153,848.6l-0.2,0l-0.2,0.3l-0.1,0.6l0.3,0.2l0,0.4l0,1.1l-0.3,0.7c0,0-0.2,0.5-0.5,0.4
		c-0.2-0.1-1.2-0.3-1.2-0.3l-0.3,0.7l0.8,0.5l0.6-0.6l0.9,0l0.9-0.6l0.6-0.6l-0.6-0.7l-0.6-0.6l0.5,0l0.3,0.2l0.4-0.7l0-0.8
		l-0.3-0.4l-0.1,0.9l-0.5,0.5L1153,848.6z M1098.5,899.2l-0.3,1.3l1.1-0.4l0,0.7l0.9-0.6l-0.8-0.3L1098.5,899.2z M1099.8,902.2
		l-0.7-0.3l-0.5,0.4l0.4,0.4l-1.3,0.4l-0.3,0.5l0.8,0.4l0.3-0.5h1.2l-0.3-0.6v-0.5L1099.8,902.2z"/>
</g>
</svg>
