<?xml version="1.0" encoding="utf-8"?>
<!-- Generator: Adobe Illustrator 18.1.1, SVG Export Plug-In . SVG Version: 6.00 Build 0)  -->
<svg version="1.1" id="レイヤー_2" xmlns="http://www.w3.org/2000/svg" xmlns:xlink="http://www.w3.org/1999/xlink" x="0px"
	 y="0px" viewBox="1879.7 -0.5 101 101" enable-background="new 1879.7 -0.5 101 101" xml:space="preserve">
<path fill="#020202" d="M1920.7,36.7h-3.1l-1.7-1.7h-2.1l-2.7,2.7l-2.7,1l-0.8,2.6h-1v2.6l-3.4,5.2l-4.6,13.1l1.5,3.7l0.8-0.4
	l-0.9-2.3l3.6-1.7v-2.1h1.1l3.7-2l3.4-0.5h6.4l4,2.1l-0.5,0.8l-1.8-1l-0.5,0.9l2.6,1.5l1.1-1.9l7.5,6.1h0.9l2.9-4.2l5.7-4l11.8-3
	l2.6,0.9l2-0.9h2.6v-1.4h-1.8l1.9-4.8l-3-1.4h-0.9l-0.9-2.7l-2-0.7h-1.8l-1.1,1.7h-1.6l-2.5-1.3l-1.4-2.4l-2.3-2l-1.7,0.5l-2.6-1.8
	h-0.7l-1.2,1.2l-1.1-0.4l1.4-1.9l-2.6-2.6l-4.3-2h-2.1l-5,3.1L1920.7,36.7z M1911.3,57.8l-1.4,0.1l-4,2.6l2.9,6.6l1.9-2l-0.3-1.4
	l3.6-1.4l3.7-2l-1.7-1.2l-0.7-1.2l-2.3-0.3L1911.3,57.8z M1949.1,39.7h-1.1l-3.1-1.2l-1.2,0.5l0.9,1l2.3,0.7l1.5,1.6l2.4-0.3v-0.6
	l2.4-0.2l-0.2-1.3h-2.5L1949.1,39.7z M1962.3,37.9l-1.1,0.5l-0.9-0.3l-0.9,0.8h-1.2l0.5,1.4l-0.5,1.2l0.7,0.4l2.2,3l-0.2,0.5
	l0.3,0.7l4.3-1.8l0.9-3.4l-1.3-1.7L1962.3,37.9z M1956.7,38.6l1.4,1.4l-0.3,1l-1.7,0.1l-0.6-1.9l0.5-0.9L1956.7,38.6z M1961.8,37.5
	l-1.8-0.9l-2.9,0.8l-0.3,0.4l1.4-0.3l1.4-0.1L1961.8,37.5z M1922.9,66.9l-2.4-2.3l-0.6,1.1l-1.7-0.6l-0.9,0.7l2.3,0.9L1922.9,66.9z
	 M1923.2,69.1l-2,0.2l-1.1-1.1l0.1,2.3l2.1,0.6l0.9-0.5V69.1z M1916.5,69.7l-1.4-1l-1.5,0.3l-0.7,1l2.1,0.3L1916.5,69.7z M1933.9,66
	l-1.9,1.6l0.9,1l0.4-1.2l0.8,0.6L1933.9,66z M1924.8,68.9V70l1.5,0.5L1924.8,68.9z M1916.2,72l-0.9-0.3l-0.2,0.8h-0.9l0.3,1l1.6-0.8
	L1916.2,72z M1917.6,74.3l-1.2-0.4l-0.7,0.3l0.7,0.6l0.5,0.6h0.5L1917.6,74.3z"/>
<rect x="1880.2" y="0" fill="none" stroke="#CCCCCC" stroke-miterlimit="10" width="100" height="100"/>
<path fill="#CCCCCC" d="M1885.2,56.9l2.2-3.3l2.9-1.9l2.9-2.1l4.9,0.5l5.2-4.3l2-4.4l0.8-0.7l1.3-1.4l1.1-2.4l2-0.6l0.9-1.4l4-1.7
	l4.5,1.7l1.4-0.4l3.1-2.8l1.8-1.2h2.1l5.1,1.9h1.8l3.1,4.8l4.5,1l1.4-0.6l4.3,1.3l4.1-1.2l2.1-2.1l0.9-3.2l0.3-8.2l-1.4-1.8l0.4-1.3
	l-1.9-2.9l-2.3-1l-1.7-2v-3.1l1.3-2.2l1.4,3l3.4,2.8l3,4.5l-0.2,3.4l0.8,3.1l0.9,2.3l2.8,0.9l-2,2.4l-1,1l0.5,1.2l1.5,0.8l3,1.5
	l3.7,3.2l0.8,1.6l0.7,1.9l-0.5,0.6l-2.1,1.4l-0.8,1.7l4,0.6l2.2,1.4l0.9,1.7l2.6-1l0.3,0.8l3.3,0.6h0.7V0h-100v57.7l4.3,3.7
	L1885.2,56.9z M1965.9,95h2.6v-2.2l1.6,1.8l0.6-1.5l1.3,1h1.1l0.7-1.4v-6l1.2-3.1v-5l-0.7-0.7v-1.6l-0.6-1.4l-3-2.2l-2.3-1.8
	l-2.5,0.5l-1.9,3.4l2.9,2.3v2.2l-0.8-1l-0.9,0.4v1.7l1.1,0.5l-1.6,0.9v-1l-1.2-0.5h-1.7l-0.4-2.5l1-0.5v-0.9h-2.4v-1.1h0.8l-0.7-1.1
	l-0.7,0.3v0.9l-1.9-1.2v-2.4l-3,1.3l-1.1,4.3l-0.4,2.3l0.3,1.6l-2-0.7l-0.5-0.7h-1.1l-0.9-1l-1.1,0.9l-1-1.4l-0.5,0.4v0.8l-2.2-0.7
	l-1-0.2l0.3,1.1l2.1,3l-1.1,0.4v1.1l1.3,3h-0.8l-1.4,1.7l-1.5-2.2v-1.6l-1.4,0.3l-1.4-0.4l-0.3,0.9l2,2.9l0.9,1.5v3l4.5,4.2h1.8
	l0.9,1l3.7-1.6l2,1.2l1.3,1.9h4.6l0.3-1.7l2,1.7h1.3l0.5-0.9l1.1,0.9h2.2l-1.8-2.6V95H1965.9z M1940,90.6l-0.5-0.7l-0.3,4.5
	l-1.4,0.5l-0.7-0.9h-3.4l-0.7,1.4l2,2.6l-1.4-0.9l-2.8-0.8v3.5h15.7l-6.5-6.3L1940,90.6L1940,90.6z M1937.4,90.3l-3.7-2l-1.7,0.3
	l-1.1,1.4v1.7l0.5,2l-0.2,1h1.5l-0.6-1.1h1.6l0.9-0.5l0.9,0.2h1.6l0.8,1.2l0.9-0.3v-1l-1.3-0.9L1937.4,90.3z M1926,95.4l-1.2-3.1
	l-0.5,0.2l-0.2,1l-1.5-2l-1,0.3l0.1,2.2l-0.6,0.5l-0.9-0.7l-1.4,0.4V95l1.3,0.3l2.6,4.6h3.6l-0.3-1.2V95.4z M1946.1,98.9l1.2,1.1
	h1.9l-1.2-0.7L1946.1,98.9z"/>
</svg>
