<?xml version="1.0" encoding="utf-8"?>
<!-- Generator: Adobe Illustrator 18.1.1, SVG Export Plug-In . SVG Version: 6.00 Build 0)  -->
<svg version="1.1" id="レイヤー_1" xmlns="http://www.w3.org/2000/svg" xmlns:xlink="http://www.w3.org/1999/xlink" x="0px"
	 y="0px" width="57px" height="12px" viewBox="-277 391 57 12" enable-background="new -277 391 57 12" xml:space="preserve">
<path id="path-1" fill="#FFFFFF" d="M-223.6,402.9h-3.4l3.6-11.9h3.4C-220,391-223.6,402.9-223.6,402.9z M-230.9,393l-0.8,2.7h4.9
	l-0.6,2h-4.9l-0.9,3h5.4l-0.7,2.2h-11.1l-2.2-6.7h-1.3l-2,6.7h-5.8l-2.2-6.7h-1.3l-2,6.7h-3.4l3.6-11.9h3.4l-1.5,5.1l4.8-5.1h3.9
	l-5.4,5.3h1.2l1.9,5l3.1-10.2h3.4l-1.5,5.1l4.8-5.1h3.9l-5.4,5.3h1.2l1.8,4.8l3-10.1h8.5l-0.6,2H-230.9z M-264.7,402.9l3.6-11.9h3.4
	l-3.6,11.9H-264.7L-264.7,402.9z M-270.1,402.9l-1.6-8l-2.4,8h-2.9l3.6-11.9h3.8l1.6,7.9l2.4-7.9h2.9l-3.6,11.9
	C-266.3,402.9-270.1,402.9-270.1,402.9z"/>
</svg>
