<?xml version="1.0" encoding="utf-8"?>
<!-- Generator: Adobe Illustrator 18.1.1, SVG Export Plug-In . SVG Version: 6.00 Build 0)  -->
<svg version="1.1" id="レイヤー_1" xmlns="http://www.w3.org/2000/svg" xmlns:xlink="http://www.w3.org/1999/xlink" x="0px"
	 y="0px" viewBox="0 0 2000 2000" enable-background="new 0 0 2000 2000" xml:space="preserve">
<g>
	<path fill="#999999" d="M175.5,1228.5l595.7,595.7c14.6,14.6,37.1,14.6,51.8,0L1823.8,823.3c14.6-14.6,14.6-37.1,0-51.8
		l-595.7-595.7c-14.6-14.6-37.1-14.6-51.8,0L175.5,1177.7C161.8,1191.4,161.8,1214.8,175.5,1228.5z M1638.3,823.3l-816.3,816.3
		c-14.6,14.6-37.1,14.6-51.8,0l-416-416c-14.6-14.6-14.6-37.1,0-51.8l816.3-816.3c14.6-14.6,37.1-14.6,51.8,0l416,416
		C1652.9,786.1,1652.9,809.6,1638.3,823.3z"/>
	<path fill="#999999" d="M904.9,1496.1l590.8-590.8c-60.5-62.5-57.6-156.2-2-212.9L1303.3,502c-61.5,61.5-152.3,58.6-213.9-2.9
		l-589.8,589.8c61.5,61.5,59.6,156.2-2,217.8l189.4,189.4C748.7,1436.5,842.4,1434.5,904.9,1496.1z M849.3,831.1
		c69.3-69.3,196.3-55.7,283.2,31.2c86.9,86.9,100.6,212.9,31.2,283.2c-69.3,69.3-196.3,55.7-283.2-31.2
		C793.6,1026.4,779.9,900.4,849.3,831.1z"/>
</g>
</svg>
