<?xml version="1.0" encoding="utf-8"?>
<!-- Generator: Adobe Illustrator 18.1.1, SVG Export Plug-In . SVG Version: 6.00 Build 0)  -->
<svg version="1.1" id="レイヤー_1" xmlns="http://www.w3.org/2000/svg" xmlns:xlink="http://www.w3.org/1999/xlink" x="0px"
	 y="0px" viewBox="0 0 2000 2000" enable-background="new 0 0 2000 2000" xml:space="preserve">
<g>
	<path fill="#092F5F" d="M514.6,1201.8l533.4,533.4c13.2,13.2,33.2,13.2,46.4,0l896.4-896.4c13.2-13.2,13.2-33.2,0-46.4L1457.4,259
		c-13.2-13.2-33.2-13.2-46.4,0l-896.4,897.3C502.3,1168.6,502.3,1189.6,514.6,1201.8z M1824.7,838.9l-731.1,731.1
		c-13.2,13.2-33.2,13.2-46.4,0l-372.5-372.5c-13.2-13.2-13.2-33.2,0-46.4L1405.8,420c13.2-13.2,33.2-13.2,46.4,0l372.5,372.5
		C1837.8,805.7,1837.8,826.6,1824.7,838.9z"/>
	<path fill="#092F5F" d="M1167.8,1441.5L1697,912.3c-54.3-56-51.6-140-1.8-190.7l-170.5-170.5c-55.1,55.1-136.5,52.5-191.5-2.6
		l-528.3,528.3c55.1,55.1,53.4,140-1.8,195l169.7,169.7C1028,1388.1,1111.9,1386.4,1167.8,1441.5z M1118.1,845.9
		c62.2-62.2,175.8-49.9,253.6,27.9c77.8,77.8,90.1,190.7,27.9,253.6c-62.2,62.2-175.8,49.9-253.6-27.9
		C1068.2,1020.8,1055.9,908,1118.1,845.9z"/>
</g>
<g>
	<path fill="#FFFFFF" d="M358.2,1201.8l533.4,533.4c13.2,13.2,33.2,13.2,46.4,0l896.4-896.4c13.2-13.2,13.2-33.2,0-46.4L1301,259
		c-13.2-13.2-33.2-13.2-46.4,0l-896.4,897.3C346,1168.6,346,1189.6,358.2,1201.8z"/>
</g>
<g>
	<path fill="#092F5F" d="M261.9,1201.8l533.4,533.4c13.2,13.2,33.2,13.2,46.4,0l896.4-896.4c13.2-13.2,13.2-33.2,0-46.4
		l-533.4-533.3c-13.2-13.2-33.2-13.2-46.4,0l-896.4,897.3C249.6,1168.6,249.6,1189.6,261.9,1201.8z M1571.9,838.9l-731.1,731.1
		c-13.2,13.2-33.2,13.2-46.4,0l-372.5-372.5c-13.2-13.2-13.2-33.2,0-46.4L1153,420c13.2-13.2,33.2-13.2,46.4,0l372.5,372.5
		C1585.1,805.7,1585.1,826.6,1571.9,838.9z"/>
	<path fill="#092F5F" d="M915.2,1441.5l529.2-529.2c-54.3-56-51.6-140-1.8-190.7l-170.5-170.5c-55.1,55.1-136.5,52.5-191.5-2.6
		l-528.3,528.3c55.1,55.1,53.4,140-1.8,195l169.7,169.7C775.2,1388.1,859.2,1386.4,915.2,1441.5z M865.3,845.9
		c62.2-62.2,175.8-49.9,253.6,27.9c77.8,77.8,90.1,190.7,27.9,253.6c-62.2,62.2-175.8,49.9-253.6-27.9
		C815.5,1020.8,803.2,908,865.3,845.9z"/>
</g>
<g>
	<path fill="#FFFFFF" d="M105.6,1201.8L639,1735.2c13.2,13.2,33.2,13.2,46.4,0l896.4-896.4c13.2-13.2,13.2-33.2,0-46.4l-533.5-533.3
		c-13.2-13.2-33.2-13.2-46.4,0l-896.4,897.3C93.3,1168.6,93.3,1189.6,105.6,1201.8z"/>
</g>
<g>
	<path fill="#092F5F" d="M9.1,1201.8l533.4,533.4c13.2,13.2,33.2,13.2,46.4,0l896.4-896.4c13.2-13.2,13.2-33.2,0-46.4L951.9,259.1
		c-13.2-13.2-33.2-13.2-46.4,0L9.1,1156.4C-3,1168.6-3,1189.6,9.1,1201.8z M1319.2,838.9L588,1570.1c-13.2,13.2-33.2,13.2-46.4,0
		l-372.5-372.5c-13.2-13.2-13.2-33.2,0-46.4L900.3,420c13.2-13.2,33.2-13.2,46.4,0l372.5,372.5
		C1332.3,805.7,1332.3,826.6,1319.2,838.9z"/>
	<path fill="#092F5F" d="M662.5,1441.5l529.2-529.2c-54.3-56-51.6-140-1.8-190.7l-170.5-170.4c-55.1,55.1-136.5,52.5-191.5-2.6
		l-528.4,528.2c55.1,55.1,53.4,140-1.8,195l169.7,169.8C522.5,1388.1,606.5,1386.4,662.5,1441.5z M612.6,845.9
		c62.2-62.2,175.8-49.9,253.6,27.9c77.8,77.8,90.1,190.7,27.9,253.6c-62.2,62.2-175.8,49.9-253.6-27.9
		C562.7,1020.8,550.6,908,612.6,845.9z"/>
</g>
</svg>
