<?xml version="1.0" encoding="utf-8"?>
<!-- Generator: Adobe Illustrator 18.1.1, SVG Export Plug-In . SVG Version: 6.00 Build 0)  -->
<svg version="1.1" id="レイヤー_1" xmlns="http://www.w3.org/2000/svg" xmlns:xlink="http://www.w3.org/1999/xlink" x="0px"
	 y="0px" viewBox="0 0 74 74" enable-background="new 0 0 74 74" xml:space="preserve">
<g>
	<path fill="#FFFFFF" d="M48.8,21.2c-0.7-1.5-1.6-2.7-2.9-3.7c-1.3-1-2.8-1.8-4.6-2.4c-1.8-0.6-3.9-0.8-6.2-0.8
		c-0.9,0-1.9,0.1-2.9,0.2c-1,0.1-2,0.3-2.9,0.5s-1.9,0.4-2.7,0.7c-0.9,0.3-1.7,0.6-2.4,0.9v6.8c1.3-0.6,2.9-1.1,4.6-1.6
		c1.7-0.4,3.5-0.7,5.3-0.7c2.4,0,4.2,0.5,5.4,1.4c1.1,0.9,1.7,2.2,1.7,3.8c0,0.7-0.1,1.4-0.4,1.9c-0.2,0.6-0.6,1.1-0.9,1.5
		c-0.4,0.5-0.9,0.9-1.4,1.3s-1.1,0.8-1.7,1.2c-0.8,0.5-1.7,1.1-2.6,1.7c-0.9,0.6-1.7,1.4-2.4,2.2C31.1,37,30.5,38,30,39.2
		c-0.5,1.2-0.7,2.7-0.7,4.4c0,0.2,0,0.4,0,0.8c0,0.3,0,0.6,0.1,0.8h7.8v-0.6c0-1.2,0.2-2.3,0.6-3.2c0.4-0.9,0.9-1.6,1.6-2.3
		c0.7-0.6,1.4-1.2,2.2-1.7s1.6-1.1,2.5-1.6c0.7-0.5,1.4-1,2.1-1.6c0.7-0.6,1.3-1.2,1.8-2s0.9-1.7,1.2-2.7s0.5-2.2,0.5-3.6
		C49.8,24.3,49.5,22.6,48.8,21.2z"/>
	<rect x="28.9" y="52.8" fill="#FFFFFF" width="9.5" height="9.4"/>
</g>
</svg>
