<?xml version="1.0" encoding="utf-8"?>
<!-- Generator: Adobe Illustrator 18.1.1, SVG Export Plug-In . SVG Version: 6.00 Build 0)  -->
<svg version="1.1" id="レイヤー_1" xmlns="http://www.w3.org/2000/svg" xmlns:xlink="http://www.w3.org/1999/xlink" x="0px"
	 y="0px" viewBox="0 0 242.2 242.2" enable-background="new 0 0 242.2 242.2" xml:space="preserve">
<path fill="#092F5F" d="M-7.1,49L-25,38.4V6.2c0-3.5-2-6.2-5.5-6.2h-13.6C-47.6,0-49,2.7-49,6.2v16.1L-83.2,1.9
	c-4.2-2.6-9.8-2.6-14,0l-76.9,46.6c-6.2,3.8-8.3,11.9-4.5,18.1c3.8,6.2,11.8,8.2,18,4.4l63-38.3c4.2-2.6,9.5-2.6,13.7,0l63.6,38.7
	C-14.2,75.2-6.1,73-2.3,67h0.1C1.5,62-0.9,52.8-7.1,49z"/>
<path fill="#092F5F" d="M-31.7,72.3l-53-31.3c-3.9-2.3-10.2-2.3-14.1,0l-52.5,31c-2.3,1.3-4.2,3.8-5.4,6.5c1.6-0.3,3.1-0.5,4.8-0.5
	c4.6,0,9.2,1.3,13.1,3.7l15.9,9.8c2-7.8,8.6-14.6,17.7-14.6h13.6c9.7,0,16.6,8,16.6,19.2v25.5l12.6,7.8c5.6,3.4,9.9,8.8,11.7,15.1
	c0.7,2.4,1,4.9,1,7.4h17.3c4.5,0,7.4-4.5,7.4-9V84.7C-25,80.2-27.8,74.6-31.7,72.3z"/>
<path d="M-655.1-541.6c-13.6-16.8-89.8-45.9-89.8-45.9c-7.2-2.8-8.1-8.9-2.1-13.7c0,0,33.3-33.3,33.3-77.5
	c0-50.1-30.3-86.8-80.5-86.8c-50.1,0-80.5,36.6-80.5,86.8c0,44.2,33.3,77.5,33.3,77.5c6.1,4.8,5.1,10.9-2.1,13.7
	c0,0-76.4,29.2-89.9,46c-17.3,21.4-38.2,114.7-38.2,114.7c-1.7,7.5,2.9,12.1,11,13.7c8,1.6,117.5,25.8,166.4,25.8
	s158.8-24.1,166.4-25.8c7.5-1.7,12.7-6.2,11-13.7C-616.9-426.9-637.8-520.2-655.1-541.6z"/>
<path fill="#092F5F" d="M155.5,166.1c-6.6-8.2-44-22.5-44-22.5c-3.5-1.4-4-4.4-1-6.7c0,0,16.3-16.3,16.3-37.9
	c0-24.6-14.9-42.5-39.4-42.5C62.9,56.4,48,74.4,48,98.9c0,21.6,16.3,37.9,16.3,37.9c3,2.3,2.5,5.4-1,6.7c0,0-37.4,14.3-44,22.5
	c-8.5,10.5-18.7,56.2-18.7,56.2c-0.8,3.7,1.4,5.9,5.4,6.7c3.9,0.8,57.6,12.6,81.5,12.6s77.8-11.8,81.5-12.6s6.2-3,5.4-6.7
	C174.2,222.2,164,176.6,155.5,166.1z"/>
<g>
	<path fill="#092F5F" d="M112.3,77.5c2.6,0.7,6.4,1.6,11.2,2.6c-2.5-6.2-6.2-11.4-11.1-15.3c-1,3.2-2,5.7-2.7,7.8
		C108.8,74.6,110.1,76.9,112.3,77.5z"/>
	<path fill="#092F5F" d="M242.4,164.6c0,0-10-44.6-18.2-54.8c-6.5-8-42.9-21.9-42.9-21.9c-3.1-1.2-3.7-3.6-1.8-5.7
		c10.7-1.4,19.1-3.4,23.7-4.6c2.2-0.6,3.4-2.9,2.6-5c-2-5.4-5.4-14.2-7.7-29.1c-3.6-23.7-16.4-43.4-40.3-43.4
		c-23.9,0-36.7,19.7-40.3,43.4c-0.5,3.3-1.1,6.3-1.7,9c14.4,9.2,23.2,25.9,23.2,46.6c0,16-7,29.4-12.7,37.6c3,1.2,6.3,2.7,9.8,4.3
		c20.3,9.2,26.1,14.3,28.9,17.7c2.4,2.9,5.9,8.5,10.9,23.6c25.4-3.1,58.6-10.3,61.4-11C240.7,170.3,243.2,168.2,242.4,164.6z"/>
	<path fill="#092F5F" d="M91.2,109.8C82.9,120,73,164.6,73,164.6c-0.8,3.6,1.4,5.8,5.2,6.5c3.8,0.8,56.2,12.3,79.5,12.3
		c1.8,0,3.7-0.1,5.8-0.2c-2.6-7.5-5.3-14-7.9-17.2c-6.6-8.2-44-22.5-44-22.5c-3.5-1.4-4-4.4-1-6.7c0,0,16.3-16.3,16.3-37.9
		c0-2.7-0.2-5.4-0.6-7.9C115.2,95.5,95.8,104.1,91.2,109.8z"/>
</g>
<g>
	<path fill="#092F5F" d="M442.2,141c-7.7-9.5-51-26.1-51-26.1c-4.1-1.6-4.6-5.1-1.2-7.8c0,0,18.9-18.9,18.9-44
		c0-28.5-17.2-49.3-45.7-49.3c-28.5,0-45.7,20.8-45.7,49.3c0,25.1,18.9,44,18.9,44c3.5,2.7,2.9,6.2-1.2,7.8c0,0-43.4,16.6-51.1,26.1
		c-9.8,12.2-21.7,65.1-21.7,65.1c-1,4.3,1.7,6.9,6.2,7.8s66.7,14.6,94.5,14.6c27.7,0,90.2-13.7,94.5-14.6s7.2-3.5,6.2-7.8
		C463.9,206.2,452.1,153.2,442.2,141z"/>
</g>
<g>
	<path d="M-233.5-401.2c25.1-4.7,46.4-9.2,55.4-11.1c0,0,0,0,0,0c2.1-0.4,3.5-0.8,4.1-0.9c0.9-0.2,1.8-0.5,2.7-0.8
		c0.6-0.2,1.2-0.5,1.8-0.7c0.4-0.2,0.8-0.4,1.1-0.6c0.6-0.3,1.1-0.7,1.6-1c0.3-0.2,0.6-0.5,0.9-0.8c0.4-0.4,0.8-0.8,1.1-1.2
		c0.6-0.8,1.1-1.6,1.4-2.5c0.1-0.4,0.2-0.7,0.3-1.1c0.2-0.8,0.3-1.6,0.3-2.4s-0.1-1.7-0.3-2.7c0,0-1.7-7.4-4.4-18.5
		c-0.3-1.2-0.6-2.5-1-3.8c-0.7-2.6-1.4-5.4-2.1-8.4c-0.8-2.9-1.6-6-2.4-9.1c-0.4-1.6-0.9-3.1-1.3-4.7c-0.4-1.6-0.9-3.2-1.4-4.8
		c-1.2-4.1-2.4-8.2-3.6-12.3c-1.5-4.9-3.1-9.9-4.7-14.6c-0.3-0.8-0.5-1.6-0.8-2.4c-5.4-15.7-11.1-29.4-16.5-36.1c0,0,0,0,0,0
		c-0.2-0.3-0.5-0.6-0.8-0.9c-0.1-0.1-0.2-0.2-0.3-0.3c-0.2-0.2-0.4-0.5-0.7-0.7c-0.1-0.1-0.2-0.2-0.3-0.3c-0.3-0.3-0.6-0.5-0.9-0.8
		c-0.1-0.1-0.1-0.1-0.2-0.2c-0.4-0.3-0.8-0.7-1.2-1c-0.1-0.1-0.2-0.2-0.3-0.3c-0.3-0.3-0.7-0.5-1-0.8c-0.1-0.1-0.3-0.2-0.4-0.3
		c-0.4-0.3-0.7-0.6-1.1-0.8c-0.1-0.1-0.2-0.2-0.3-0.2c-0.5-0.4-1-0.7-1.6-1.1c-0.1,0-0.1-0.1-0.2-0.1c-0.5-0.3-1-0.6-1.4-1
		c-0.1-0.1-0.3-0.2-0.4-0.3c-0.5-0.3-0.9-0.6-1.4-0.9c-0.1-0.1-0.3-0.2-0.4-0.2c-1.2-0.8-2.5-1.5-3.8-2.3c-0.1-0.1-0.2-0.1-0.4-0.2
		c-0.6-0.3-1.1-0.7-1.7-1c-0.1-0.1-0.2-0.1-0.4-0.2c-1.4-0.8-2.8-1.6-4.3-2.4c0,0-0.1-0.1-0.1-0.1c-0.7-0.4-1.4-0.7-2.1-1.1
		c-0.1-0.1-0.2-0.1-0.3-0.2c-0.7-0.4-1.5-0.8-2.2-1.2c0,0,0,0,0,0h0c-26.7-13.8-61.4-27.1-61.4-27.1c-7.2-2.8-8.1-8.9-2.1-13.7
		c0,0,33.3-33.3,33.3-77.5c0-50.1-30.3-86.8-80.5-86.8c-50.1,0-80.5,36.6-80.5,86.8c0,44.2,33.3,77.5,33.3,77.5
		c6.1,4.8,5.1,10.9-2.1,13.7c0,0-76.4,29.2-89.9,46c-17.3,21.4-38.2,114.7-38.2,114.7c-1.7,7.5,2.9,12.1,11,13.7
		s117.5,25.8,166.4,25.8C-313.9-387.4-269.7-394.5-233.5-401.2L-233.5-401.2C-233.5-401.2-233.5-401.2-233.5-401.2z"/>
	<path d="M43.7-426.2c0,0-20.4-91-37.3-111.9c-13.2-16.4-87.6-44.8-87.6-44.8c-6.2-2.4-7.7-7.4-3.8-11.7c21.9-2.8,38.9-7,48.4-9.4
		c4.5-1.1,7-5.9,5.4-10.3c-4-11-11.1-29.1-15.8-59.5c-7.4-48.3-33.5-88.5-82.4-88.6c-48.9,0-74.9,40.2-82.4,88.6
		c-4.7,30.4-11.7,48.5-15.8,59.5c-1.6,4.3,0.9,9.1,5.4,10.3c9.5,2.4,26.6,6.6,48.5,9.4c3.9,4.3,2.5,9.3-3.8,11.7c0,0-15.7,6-34,14.1
		c14.2,8.1,19.7,13.5,22.7,17.2c3.2,3.9,12.9,15.9,28.5,71.1c7.4,26.1,12.6,49.2,12.8,50.2c1.6,7.2,0.5,14.1-3.2,19.9
		c-4.1,6.5-11,10.9-19.9,12.9c-3.7,0.8-10.1,2.2-18.5,3.9c22.5,3.4,44.2,5.9,59.7,5.9c47.6,0,154.9-23.5,162.3-25.1
		S45.3-418.9,43.7-426.2z"/>
</g>
<g>
	<circle fill="#092F5F" cx="-604.5" cy="32.7" r="32.7"/>
	<path fill="#092F5F" d="M-563.1,91.3c8.8-11.5,34.3-52.3,34.3-52.3c2-2.6,8.4-17.7,1.7-22.3c-10.1-7-17.7,3.3-20.6,7.1L-582,68.6
		c-0.9,1.2-2.4,1.9-4,1.7c-3.3-0.3-9.8-0.8-18.5-0.8c-8.8,0-15.5,0.5-18.8,0.8c-1.5,0.1-3-0.5-4-1.8l-34.3-44.9
		c-2.9-3.8-10.5-14.1-20.6-7.1c-6.7,4.6-0.3,19.8,1.7,22.3c0,0,25.4,40.8,34.3,52.3c0.5,0.7,2.1,2.9,2.8,4.6
		c0.7,1.7,0.5,3.1,0.3,4.5c-1.2,7.7-5,23.5-5,45.7c0,44,7.7,76.2,8.5,83.5c0.7,7.2,6.7,12.5,12.5,12.5c10,0,13.5-5.7,13.5-12.6
		v-30.4c0-5.7,4.5-10.7,9-10.7c4.5,0,9,5.1,9,10.7v30.4c0,6.9,3.5,12.6,13.5,12.6c5.7,0,11.7-5.2,12.5-12.5s8.5-39.5,8.5-83.5
		c0-22.2-3.8-38-5-45.7c-0.2-1.3-0.4-2.7,0.3-4.5C-565.2,94.2-563.6,92.1-563.1,91.3z"/>
</g>
<g>
	<path fill="#092F5F" d="M-257,87.3l-22-13.3V33.2c0-4.4-3.8-8.2-8.2-8.2h-17.2c-4.4,0-7.6,3.8-7.6,8.2v20.4l-42.6-25.8
		c-5.3-3.2-12.1-3.2-17.4,0l-97,58.9c-7.8,4.8-10.4,15-5.6,22.8c4.8,7.8,15,10.3,22.8,5.6l79.6-48.4c5.3-3.2,12-3.2,17.3,0
		l80.4,48.9c7.8,4.8,18.1,2.4,22.8-5.6h0.1C-246.8,102-249.2,92-257,87.3z"/>
	<path fill="#092F5F" d="M-288,116.8l-67.3-39.5c-4.9-2.9-13-2.9-17.9,0l-66.7,39.2c-4.9,2.9-9,9.9-9,15.7v79.7
		c0,5.7,4.7,10.2,10.4,10.2h149c5.7,0,10.6-4.5,10.6-10.2v-79.4C-279,126.7-283.1,119.6-288,116.8z"/>
</g>
<path d="M476.8-518.7l-85.1-51.9c-5.6-3.4-12.7-3.4-18.3,0l-84.3,51.2c-8.3,5-19.1,2.4-24.2-5.9h0c-5-8.3-2.4-19.1,5.9-24.2
	l102.6-62.4c5.6-3.4,12.7-3.4,18.3,0l103.4,63.1c8.3,5.1,10.9,15.9,5.9,24.2l0,0C495.9-516.3,485.1-513.6,476.8-518.7z"/>
<path d="M472-501.1c0-6-4.4-13.5-9.6-16.6l-71.3-41.8c-5.2-3.1-13.8-3.1-19,0L301.5-518c-5.2,3.1-9.5,10.5-9.5,16.6v84.4
	c0,6,4.9,11,11,11h157.8c6,0,11.3-4.9,11.3-11V-501.1z"/>
<path d="M463.3-550.8H445c-4.7,0-8.5-3.8-8.5-8.5v-46.8c0-4.7,3.8-8.5,8.5-8.5h18.2c4.7,0,8.5,3.8,8.5,8.5v46.8
	C471.7-554.5,467.9-550.8,463.3-550.8z"/>
<g>
	<path fill="#092F5F" d="M-68.2,139.5L-86,128.4V96.2c0-3.5-2.1-8.2-5.6-8.2h-13.6c-3.5,0-5.8,4.7-5.8,8.2v16.1l-33.8-20.4
		c-4.2-2.6-9.6-2.6-13.8,0l-76.7,46.8c-6.2,3.8-8.2,11.3-4.5,18.3h0c3.8,5,11.9,8,18.1,4.2l63-38.4c4.2-2.6,9.5-2.6,13.7,0
		l63.5,39.2c6.2,3.8,14.3,0,18.1-4h0.1C-59.6,151-62,143.3-68.2,139.5z"/>
	<path fill="#092F5F" d="M-111,210.1c0,3.8-3.4,5.9-7.2,5.9h-70.1c-3.8,0-7.7-2.1-7.7-5.9v-57.9l-23,14.9v54.6
		c0,10.4,8.4,20.3,18.8,20.3h95.2c10.2,0,17.9-9.4,17.9-20.3v-55.9l-24-15.3V210.1z"/>
</g>
</svg>
